<mxfile host="65bd71144e">
    <diagram id="PZ2NIN783vTIhC9EUjWE" name="Page-1">
        <mxGraphModel dx="1086" dy="597" grid="1" gridSize="10" guides="1" tooltips="1" connect="1" arrows="1" fold="1" page="1" pageScale="1" pageWidth="850" pageHeight="1100" math="0" shadow="0">
            <root>
                <mxCell id="0"/>
                <mxCell id="1" parent="0"/>
                <mxCell id="31" value="" style="rounded=0;whiteSpace=wrap;html=1;fillColor=#FFFFFF;strokeColor=none;" vertex="1" parent="1">
                    <mxGeometry x="14" y="50" width="570" height="730" as="geometry"/>
                </mxCell>
                <mxCell id="2" value="" style="rounded=1;arcSize=10;dashed=0;strokeWidth=2;" parent="1" vertex="1">
                    <mxGeometry x="30" y="80" width="540" height="580" as="geometry"/>
                </mxCell>
                <mxCell id="3" value="" style="dashed=0;html=1;shape=mxgraph.aws3.cloud;fillColor=#F58536;gradientColor=none;dashed=0;" parent="1" vertex="1">
                    <mxGeometry x="72.25" y="60" width="52" height="36" as="geometry"/>
                </mxCell>
                <mxCell id="4" value="s3&lt;br&gt;isc2wichitachapter.org" style="outlineConnect=0;dashed=0;verticalLabelPosition=bottom;verticalAlign=top;align=center;html=1;shape=mxgraph.aws3.bucket_with_objects;fillColor=#E05243;gradientColor=none;" parent="1" vertex="1">
                    <mxGeometry x="90" y="120" width="60" height="61.5" as="geometry"/>
                </mxCell>
                <mxCell id="5" value="s3&lt;br&gt;isc2ictchapter.org" style="outlineConnect=0;dashed=0;verticalLabelPosition=bottom;verticalAlign=top;align=center;html=1;shape=mxgraph.aws3.bucket;fillColor=#E05243;gradientColor=none;" parent="1" vertex="1">
                    <mxGeometry x="90" y="246.5" width="60" height="61.5" as="geometry"/>
                </mxCell>
                <mxCell id="6" value="s3&lt;br&gt;isc2ictchapter.com" style="outlineConnect=0;dashed=0;verticalLabelPosition=bottom;verticalAlign=top;align=center;html=1;shape=mxgraph.aws3.bucket;fillColor=#E05243;gradientColor=none;" parent="1" vertex="1">
                    <mxGeometry x="90" y="510" width="60" height="61.5" as="geometry"/>
                </mxCell>
                <mxCell id="8" value="s3&lt;br&gt;isc2wichitachapter.com" style="outlineConnect=0;dashed=0;verticalLabelPosition=bottom;verticalAlign=top;align=center;html=1;shape=mxgraph.aws3.bucket;fillColor=#E05243;gradientColor=none;" parent="1" vertex="1">
                    <mxGeometry x="90" y="381.5" width="60" height="61.5" as="geometry"/>
                </mxCell>
                <mxCell id="9" value="route53&lt;br&gt;isc2wichitachapter.org" style="outlineConnect=0;dashed=0;verticalLabelPosition=bottom;verticalAlign=top;align=center;html=1;shape=mxgraph.aws3.route_53;fillColor=#F58536;gradientColor=none;" parent="1" vertex="1">
                    <mxGeometry x="390" y="108" width="70.5" height="85.5" as="geometry"/>
                </mxCell>
                <mxCell id="18" value="" style="edgeStyle=none;html=1;entryX=0.94;entryY=0.5;entryDx=0;entryDy=0;entryPerimeter=0;" parent="1" source="10" target="4" edge="1">
                    <mxGeometry relative="1" as="geometry">
                        <mxPoint x="350" y="354.5" as="targetPoint"/>
                    </mxGeometry>
                </mxCell>
                <mxCell id="19" value="" style="edgeStyle=none;html=1;" parent="1" source="10" target="5" edge="1">
                    <mxGeometry relative="1" as="geometry">
                        <mxPoint x="350" y="354.5" as="targetPoint"/>
                    </mxGeometry>
                </mxCell>
                <mxCell id="20" value="" style="edgeStyle=none;html=1;entryX=0.94;entryY=0.5;entryDx=0;entryDy=0;entryPerimeter=0;" parent="1" source="10" target="8" edge="1">
                    <mxGeometry relative="1" as="geometry">
                        <mxPoint x="350" y="354.5" as="targetPoint"/>
                    </mxGeometry>
                </mxCell>
                <mxCell id="21" value="" style="edgeStyle=none;html=1;entryX=0.94;entryY=0.5;entryDx=0;entryDy=0;entryPerimeter=0;" parent="1" source="10" target="6" edge="1">
                    <mxGeometry relative="1" as="geometry">
                        <mxPoint x="350" y="354.5" as="targetPoint"/>
                    </mxGeometry>
                </mxCell>
                <mxCell id="23" value="" style="edgeStyle=none;html=1;exitX=0.5;exitY=1;exitDx=0;exitDy=0;exitPerimeter=0;entryX=0.5;entryY=0;entryDx=0;entryDy=0;entryPerimeter=0;" parent="1" source="22" target="10" edge="1">
                    <mxGeometry relative="1" as="geometry">
                        <mxPoint x="720" y="190" as="targetPoint"/>
                    </mxGeometry>
                </mxCell>
                <mxCell id="10" value="CloudFront Distribution" style="outlineConnect=0;dashed=0;verticalLabelPosition=bottom;verticalAlign=top;align=center;html=1;shape=mxgraph.aws3.cloudfront;fillColor=#F58536;gradientColor=none;" parent="1" vertex="1">
                    <mxGeometry x="240" y="308" width="76.5" height="93" as="geometry"/>
                </mxCell>
                <mxCell id="12" value="route53&lt;br&gt;isc2ictchapter.org" style="outlineConnect=0;dashed=0;verticalLabelPosition=bottom;verticalAlign=top;align=center;html=1;shape=mxgraph.aws3.route_53;fillColor=#F58536;gradientColor=none;" parent="1" vertex="1">
                    <mxGeometry x="390" y="234.5" width="70.5" height="85.5" as="geometry"/>
                </mxCell>
                <mxCell id="14" value="route53&lt;br&gt;isc2wichitachapter.com" style="outlineConnect=0;dashed=0;verticalLabelPosition=bottom;verticalAlign=top;align=center;html=1;shape=mxgraph.aws3.route_53;fillColor=#F58536;gradientColor=none;" parent="1" vertex="1">
                    <mxGeometry x="390" y="369.5" width="70.5" height="85.5" as="geometry"/>
                </mxCell>
                <mxCell id="16" value="route53&lt;br&gt;isc2wichitachapter.com" style="outlineConnect=0;dashed=0;verticalLabelPosition=bottom;verticalAlign=top;align=center;html=1;shape=mxgraph.aws3.route_53;fillColor=#F58536;gradientColor=none;" parent="1" vertex="1">
                    <mxGeometry x="390" y="498" width="70.5" height="85.5" as="geometry"/>
                </mxCell>
                <mxCell id="22" value="Amazon Cert Mgr" style="outlineConnect=0;dashed=0;verticalLabelPosition=bottom;verticalAlign=top;align=center;html=1;shape=mxgraph.aws3.certificate_manager_2;fillColor=#759C3E;gradientColor=none;" parent="1" vertex="1">
                    <mxGeometry x="243" y="120" width="70" height="60" as="geometry"/>
                </mxCell>
                <mxCell id="25" value="2" style="edgeStyle=none;html=1;" parent="1" source="24" target="10" edge="1">
                    <mxGeometry relative="1" as="geometry"/>
                </mxCell>
                <mxCell id="26" value="1" style="edgeStyle=none;html=1;entryX=0.29;entryY=0.5;entryDx=0;entryDy=0;entryPerimeter=0;startArrow=none;" parent="1" source="24" target="16" edge="1">
                    <mxGeometry x="-0.1737" relative="1" as="geometry">
                        <mxPoint x="383" y="727.75" as="targetPoint"/>
                        <mxPoint as="offset"/>
                    </mxGeometry>
                </mxCell>
                <mxCell id="24" value="" style="sketch=0;pointerEvents=1;shadow=0;dashed=0;html=1;aspect=fixed;labelPosition=center;verticalLabelPosition=bottom;verticalAlign=top;align=center;outlineConnect=0;shape=mxgraph.vvd.web_browser;" parent="1" vertex="1">
                    <mxGeometry x="253" y="710" width="50" height="35.5" as="geometry"/>
                </mxCell>
            </root>
        </mxGraphModel>
    </diagram>
</mxfile>